<?xml version="1.0" standalone="no"?>
<!DOCTYPE svg PUBLIC "-//W3C//DTD SVG 20010904//EN"
 "http://www.w3.org/TR/2001/REC-SVG-20010904/DTD/svg10.dtd">
<svg version="1.0" xmlns="http://www.w3.org/2000/svg"
 width="600.000000pt" height="246.000000pt" viewBox="0 0 600.000000 246.000000"
 preserveAspectRatio="xMidYMid meet">

<g transform="translate(0.000000,246.000000) scale(0.100000,-0.100000)"
fill="#000000" stroke="none">
<path d="M683 2078 c-28 -13 -30 -44 -5 -52 10 -4 88 -15 172 -26 183 -24 237
-33 394 -66 332 -72 925 -268 1296 -429 96 -41 271 -117 387 -167 117 -51 209
-95 205 -99 -10 -10 -250 -107 -405 -164 l-127 -47 -128 32 c-1214 299 -1733
362 -2027 244 -74 -30 -161 -102 -181 -151 -22 -51 -18 -149 8 -202 27 -58
156 -186 230 -230 195 -114 521 -181 883 -181 331 0 664 61 1098 199 87 28
170 51 185 51 15 0 97 -16 182 -36 817 -186 1054 -223 1500 -231 291 -6 429 2
620 33 192 31 366 89 471 156 139 89 289 250 289 309 0 49 -2 48 -193 -93
-331 -245 -869 -296 -1762 -167 -140 20 -280 49 -560 115 -174 42 -191 48
-155 62 14 6 61 24 105 42 44 18 143 56 220 85 l141 53 141 -28 c78 -15 217
-36 309 -46 143 -15 185 -16 294 -6 334 30 585 121 783 285 166 137 128 329
-81 407 -30 11 -101 25 -158 31 -278 30 -595 -57 -1229 -336 -120 -52 -157
-64 -183 -60 -58 10 -281 89 -542 193 -311 122 -842 300 -1140 381 -205 56
-548 125 -692 141 -124 13 -316 12 -345 -2z m4260 -537 c14 -14 -25 -73 -73
-111 -49 -39 -184 -102 -275 -129 -178 -52 -425 -87 -540 -76 -87 8 -184 25
-190 34 -6 10 463 195 595 234 63 19 149 40 190 47 41 6 82 13 90 15 29 7 193
-4 203 -14z m-3838 -406 c221 -26 560 -91 912 -175 181 -43 203 -50 203 -59 0
-17 -246 -83 -465 -125 -555 -107 -1192 -3 -1280 208 -32 75 29 130 180 162
72 16 258 11 450 -11z"/>
</g>
</svg>
